<mxfile host="app.diagrams.net" agent="Mozilla/5.0 (X11; Linux x86_64) AppleWebKit/537.36 (KHTML, like Gecko) Chrome/141.0.0.0 Safari/537.36" version="28.2.5">
  <diagram name="Página-1" id="mTNVW8l8MWmtWuZvynor">
    <mxGraphModel dx="1678" dy="931" grid="1" gridSize="10" guides="1" tooltips="1" connect="1" arrows="1" fold="1" page="1" pageScale="1" pageWidth="827" pageHeight="1169" math="0" shadow="0">
      <root>
        <mxCell id="0" />
        <mxCell id="1" parent="0" />
        <mxCell id="aEE6XXP3drZddaAjEtbC-1" value="diabetes.csv" style="strokeWidth=2;html=1;shape=mxgraph.flowchart.direct_data;whiteSpace=wrap;fillColor=#fff2cc;strokeColor=#d6b656;" parent="1" vertex="1">
          <mxGeometry x="15" y="240" width="130" height="60" as="geometry" />
        </mxCell>
        <mxCell id="aEE6XXP3drZddaAjEtbC-10" style="edgeStyle=orthogonalEdgeStyle;rounded=0;orthogonalLoop=1;jettySize=auto;html=1;" parent="1" source="aEE6XXP3drZddaAjEtbC-2" target="aEE6XXP3drZddaAjEtbC-1" edge="1">
          <mxGeometry relative="1" as="geometry" />
        </mxCell>
        <mxCell id="aEE6XXP3drZddaAjEtbC-2" value="Início" style="strokeWidth=2;html=1;shape=mxgraph.flowchart.start_1;whiteSpace=wrap;" parent="1" vertex="1">
          <mxGeometry x="30" y="130" width="100" height="60" as="geometry" />
        </mxCell>
        <mxCell id="aEE6XXP3drZddaAjEtbC-3" value="Pipeline de Dados do Pré-Processamento do dataset &quot;diabetes.csv&quot;" style="text;strokeColor=none;fillColor=none;align=left;verticalAlign=middle;spacingLeft=4;spacingRight=4;overflow=hidden;points=[[0,0.5],[1,0.5]];portConstraint=eastwest;rotatable=0;whiteSpace=wrap;html=1;fontSize=20;" parent="1" vertex="1">
          <mxGeometry x="50" y="30" width="620" height="30" as="geometry" />
        </mxCell>
        <mxCell id="aEE6XXP3drZddaAjEtbC-26" style="edgeStyle=orthogonalEdgeStyle;rounded=0;orthogonalLoop=1;jettySize=auto;html=1;entryX=0.575;entryY=0.008;entryDx=0;entryDy=0;entryPerimeter=0;" parent="1" source="aEE6XXP3drZddaAjEtbC-4" target="aEE6XXP3drZddaAjEtbC-12" edge="1">
          <mxGeometry relative="1" as="geometry">
            <mxPoint x="220" y="410" as="targetPoint" />
            <Array as="points">
              <mxPoint x="275" y="360" />
              <mxPoint x="126" y="360" />
            </Array>
          </mxGeometry>
        </mxCell>
        <mxCell id="aEE6XXP3drZddaAjEtbC-4" value="Limpeza de Dados:&lt;br&gt;&lt;br&gt;Valores Zero serão tratados como NaN (not a number - valores nulos)" style="rounded=1;whiteSpace=wrap;html=1;absoluteArcSize=1;arcSize=14;strokeWidth=2;fillColor=#fff2cc;strokeColor=#d6b656;" parent="1" vertex="1">
          <mxGeometry x="190.5" y="211" width="149" height="130" as="geometry" />
        </mxCell>
        <mxCell id="aEE6XXP3drZddaAjEtbC-5" value="Aplicado para o modelo de ML Regressão Logística &lt;br&gt;&lt;font style=&quot;font-size: 16px;&quot;&gt;(Aprendizagem Supervisionada)&lt;/font&gt;" style="text;strokeColor=none;fillColor=none;align=left;verticalAlign=middle;spacingLeft=4;spacingRight=4;overflow=hidden;points=[[0,0.5],[1,0.5]];portConstraint=eastwest;rotatable=0;whiteSpace=wrap;html=1;fontSize=18;" parent="1" vertex="1">
          <mxGeometry x="50" y="60" width="620" height="50" as="geometry" />
        </mxCell>
        <mxCell id="aEE6XXP3drZddaAjEtbC-25" style="edgeStyle=orthogonalEdgeStyle;rounded=0;orthogonalLoop=1;jettySize=auto;html=1;entryX=1;entryY=0.5;entryDx=0;entryDy=0;" parent="1" source="aEE6XXP3drZddaAjEtbC-7" target="aEE6XXP3drZddaAjEtbC-4" edge="1">
          <mxGeometry relative="1" as="geometry" />
        </mxCell>
        <mxCell id="aEE6XXP3drZddaAjEtbC-7" value="&lt;div&gt;Colunas a serem verificadas para valores 0 que representam nulos&lt;/div&gt;&lt;div&gt;- Glucose&lt;/div&gt;&lt;div&gt;- BloodPressure&lt;/div&gt;&lt;div&gt;- SkinThickness&lt;/div&gt;&lt;div&gt;- Insulin&lt;/div&gt;&lt;div&gt;- BMI&lt;/div&gt;" style="strokeWidth=2;html=1;shape=mxgraph.flowchart.annotation_2;align=left;labelPosition=right;pointerEvents=1;" parent="1" vertex="1">
          <mxGeometry x="414" y="226" width="50" height="100" as="geometry" />
        </mxCell>
        <mxCell id="_XOS3NaCuq_lXNP3MBwC-2" value="" style="edgeStyle=orthogonalEdgeStyle;rounded=0;orthogonalLoop=1;jettySize=auto;html=1;" edge="1" parent="1" source="aEE6XXP3drZddaAjEtbC-12" target="_XOS3NaCuq_lXNP3MBwC-1">
          <mxGeometry relative="1" as="geometry" />
        </mxCell>
        <mxCell id="aEE6XXP3drZddaAjEtbC-12" value="Subtituir os NaN pela mediana da respectiva coluna" style="rounded=1;whiteSpace=wrap;html=1;absoluteArcSize=1;arcSize=14;strokeWidth=2;fillColor=#fff2cc;strokeColor=#d6b656;" parent="1" vertex="1">
          <mxGeometry x="15" y="380" width="149" height="130" as="geometry" />
        </mxCell>
        <mxCell id="aEE6XXP3drZddaAjEtbC-31" value="" style="edgeStyle=orthogonalEdgeStyle;rounded=0;orthogonalLoop=1;jettySize=auto;html=1;" parent="1" source="aEE6XXP3drZddaAjEtbC-14" target="aEE6XXP3drZddaAjEtbC-22" edge="1">
          <mxGeometry relative="1" as="geometry" />
        </mxCell>
        <mxCell id="aEE6XXP3drZddaAjEtbC-14" value="Definição do Feature Scaling&lt;br&gt;Stantandization (z-index) ou padronização utilizando cálculos com a média e a mediana" style="rounded=1;whiteSpace=wrap;html=1;absoluteArcSize=1;arcSize=14;strokeWidth=2;fillColor=#fff2cc;strokeColor=#d6b656;" parent="1" vertex="1">
          <mxGeometry x="15" y="569" width="149" height="130" as="geometry" />
        </mxCell>
        <mxCell id="aEE6XXP3drZddaAjEtbC-29" style="edgeStyle=orthogonalEdgeStyle;rounded=0;orthogonalLoop=1;jettySize=auto;html=1;" parent="1" source="aEE6XXP3drZddaAjEtbC-16" target="aEE6XXP3drZddaAjEtbC-14" edge="1">
          <mxGeometry relative="1" as="geometry" />
        </mxCell>
        <mxCell id="aEE6XXP3drZddaAjEtbC-16" value="O tipo de Feature Scaling mais adequado para o Regressão Lógistica&amp;nbsp;&lt;div&gt;é o Standardization (z-indez) padronização.&lt;div&gt;A transformação é aplicada tanto no conjunto de dados de treino quanto de teste&lt;/div&gt;&lt;/div&gt;" style="strokeWidth=2;html=1;shape=mxgraph.flowchart.annotation_2;align=left;labelPosition=right;pointerEvents=1;" parent="1" vertex="1">
          <mxGeometry x="364" y="584" width="50" height="100" as="geometry" />
        </mxCell>
        <mxCell id="aEE6XXP3drZddaAjEtbC-21" style="edgeStyle=orthogonalEdgeStyle;rounded=0;orthogonalLoop=1;jettySize=auto;html=1;" parent="1" source="aEE6XXP3drZddaAjEtbC-19" target="aEE6XXP3drZddaAjEtbC-14" edge="1">
          <mxGeometry relative="1" as="geometry">
            <Array as="points">
              <mxPoint x="621" y="540" />
              <mxPoint x="115" y="540" />
            </Array>
          </mxGeometry>
        </mxCell>
        <mxCell id="aEE6XXP3drZddaAjEtbC-19" value="Separação dos Dados em dois conjuntos de Treino (80%) e Teste (20%)" style="rounded=1;whiteSpace=wrap;html=1;absoluteArcSize=1;arcSize=14;strokeWidth=2;fillColor=#fff2cc;strokeColor=#d6b656;" parent="1" vertex="1">
          <mxGeometry x="534" y="380" width="149" height="130" as="geometry" />
        </mxCell>
        <mxCell id="aEE6XXP3drZddaAjEtbC-28" value="" style="edgeStyle=orthogonalEdgeStyle;rounded=0;orthogonalLoop=1;jettySize=auto;html=1;" parent="1" source="aEE6XXP3drZddaAjEtbC-22" target="aEE6XXP3drZddaAjEtbC-27" edge="1">
          <mxGeometry relative="1" as="geometry" />
        </mxCell>
        <mxCell id="aEE6XXP3drZddaAjEtbC-22" value="Treinamento o conjunto de dados de TREINO" style="rounded=1;whiteSpace=wrap;html=1;absoluteArcSize=1;arcSize=14;strokeWidth=2;fillColor=#dae8fc;strokeColor=#6c8ebf;" parent="1" vertex="1">
          <mxGeometry x="15" y="749" width="149" height="130" as="geometry" />
        </mxCell>
        <mxCell id="aEE6XXP3drZddaAjEtbC-24" style="edgeStyle=orthogonalEdgeStyle;rounded=0;orthogonalLoop=1;jettySize=auto;html=1;entryX=0.021;entryY=0.452;entryDx=0;entryDy=0;entryPerimeter=0;" parent="1" source="aEE6XXP3drZddaAjEtbC-1" target="aEE6XXP3drZddaAjEtbC-4" edge="1">
          <mxGeometry relative="1" as="geometry" />
        </mxCell>
        <mxCell id="aEE6XXP3drZddaAjEtbC-33" value="" style="edgeStyle=orthogonalEdgeStyle;rounded=0;orthogonalLoop=1;jettySize=auto;html=1;" parent="1" source="aEE6XXP3drZddaAjEtbC-27" target="aEE6XXP3drZddaAjEtbC-32" edge="1">
          <mxGeometry relative="1" as="geometry" />
        </mxCell>
        <mxCell id="aEE6XXP3drZddaAjEtbC-27" value="Aplicar a transformação z-index (feature scaling do tipo standardization ou padronização) nos conjuntos:&amp;nbsp;&lt;div&gt;TREINO e TESTE&lt;/div&gt;" style="rounded=1;whiteSpace=wrap;html=1;absoluteArcSize=1;arcSize=14;strokeWidth=2;fillColor=#fff2cc;strokeColor=#d6b656;" parent="1" vertex="1">
          <mxGeometry x="190.5" y="749" width="149" height="130" as="geometry" />
        </mxCell>
        <mxCell id="aEE6XXP3drZddaAjEtbC-35" value="" style="edgeStyle=orthogonalEdgeStyle;rounded=0;orthogonalLoop=1;jettySize=auto;html=1;" parent="1" source="aEE6XXP3drZddaAjEtbC-32" target="aEE6XXP3drZddaAjEtbC-34" edge="1">
          <mxGeometry relative="1" as="geometry" />
        </mxCell>
        <mxCell id="aEE6XXP3drZddaAjEtbC-32" value="Definição do modelo de ML Regressão Logística" style="rounded=1;whiteSpace=wrap;html=1;absoluteArcSize=1;arcSize=14;strokeWidth=2;fillColor=#dae8fc;strokeColor=#6c8ebf;" parent="1" vertex="1">
          <mxGeometry x="370" y="749" width="149" height="130" as="geometry" />
        </mxCell>
        <mxCell id="aEE6XXP3drZddaAjEtbC-37" value="" style="edgeStyle=orthogonalEdgeStyle;rounded=0;orthogonalLoop=1;jettySize=auto;html=1;" parent="1" source="aEE6XXP3drZddaAjEtbC-34" target="aEE6XXP3drZddaAjEtbC-36" edge="1">
          <mxGeometry relative="1" as="geometry">
            <Array as="points">
              <mxPoint x="715" y="900" />
              <mxPoint x="115" y="900" />
            </Array>
          </mxGeometry>
        </mxCell>
        <mxCell id="aEE6XXP3drZddaAjEtbC-34" value="Treinamento o conjunto de dados de TREINO PADRONIZADO (ESCALADO) com os dados dos RÓTULOS" style="rounded=1;whiteSpace=wrap;html=1;absoluteArcSize=1;arcSize=14;strokeWidth=2;fillColor=#dae8fc;strokeColor=#6c8ebf;" parent="1" vertex="1">
          <mxGeometry x="550" y="749" width="149" height="130" as="geometry" />
        </mxCell>
        <mxCell id="aEE6XXP3drZddaAjEtbC-39" value="" style="edgeStyle=orthogonalEdgeStyle;rounded=0;orthogonalLoop=1;jettySize=auto;html=1;" parent="1" source="aEE6XXP3drZddaAjEtbC-36" target="aEE6XXP3drZddaAjEtbC-38" edge="1">
          <mxGeometry relative="1" as="geometry" />
        </mxCell>
        <mxCell id="aEE6XXP3drZddaAjEtbC-36" value="Predição com o conjunto de TESTES PADRONIZADO ou ESCALADO" style="rounded=1;whiteSpace=wrap;html=1;absoluteArcSize=1;arcSize=14;strokeWidth=2;fillColor=#dae8fc;strokeColor=#6c8ebf;" parent="1" vertex="1">
          <mxGeometry x="15" y="930" width="149" height="110" as="geometry" />
        </mxCell>
        <mxCell id="aEE6XXP3drZddaAjEtbC-41" value="" style="edgeStyle=orthogonalEdgeStyle;rounded=0;orthogonalLoop=1;jettySize=auto;html=1;" parent="1" source="aEE6XXP3drZddaAjEtbC-38" target="aEE6XXP3drZddaAjEtbC-40" edge="1">
          <mxGeometry relative="1" as="geometry" />
        </mxCell>
        <mxCell id="aEE6XXP3drZddaAjEtbC-38" value="Avaliar Performance com o médoto da Acurácia &quot;ACCURARY&quot;" style="rounded=1;whiteSpace=wrap;html=1;absoluteArcSize=1;arcSize=14;strokeWidth=2;fillColor=#dae8fc;strokeColor=#6c8ebf;" parent="1" vertex="1">
          <mxGeometry x="190.5" y="930" width="149" height="110" as="geometry" />
        </mxCell>
        <mxCell id="aEE6XXP3drZddaAjEtbC-45" value="" style="edgeStyle=orthogonalEdgeStyle;rounded=0;orthogonalLoop=1;jettySize=auto;html=1;" parent="1" source="aEE6XXP3drZddaAjEtbC-40" target="aEE6XXP3drZddaAjEtbC-44" edge="1">
          <mxGeometry relative="1" as="geometry" />
        </mxCell>
        <mxCell id="aEE6XXP3drZddaAjEtbC-40" value="Análise de Coeficientes&lt;div&gt;e&amp;nbsp;&lt;/div&gt;&lt;div&gt;Exibição dos Resultados&lt;/div&gt;" style="rounded=1;whiteSpace=wrap;html=1;absoluteArcSize=1;arcSize=14;strokeWidth=2;fillColor=#dae8fc;strokeColor=#6c8ebf;" parent="1" vertex="1">
          <mxGeometry x="370" y="930" width="149" height="110" as="geometry" />
        </mxCell>
        <mxCell id="aEE6XXP3drZddaAjEtbC-43" value="" style="edgeStyle=orthogonalEdgeStyle;rounded=0;orthogonalLoop=1;jettySize=auto;html=1;" parent="1" source="aEE6XXP3drZddaAjEtbC-42" target="aEE6XXP3drZddaAjEtbC-40" edge="1">
          <mxGeometry relative="1" as="geometry" />
        </mxCell>
        <mxCell id="aEE6XXP3drZddaAjEtbC-42" value="&lt;br&gt;Interpretação dos coeficientes&lt;div&gt;Sinal: Um coeficiente positivo&amp;nbsp;&lt;/div&gt;&lt;div&gt;(por exemplo, Glucose) significa que um&amp;nbsp;&lt;/div&gt;&lt;div&gt;aumento no valor da feature aumenta a&amp;nbsp;&lt;/div&gt;&lt;div&gt;probabilidade de o resultado&amp;nbsp;&lt;/div&gt;&lt;div&gt;ser 1 (Diabetes).&lt;br&gt;&lt;div&gt;&lt;br&gt;&lt;/div&gt;&lt;/div&gt;" style="strokeWidth=2;html=1;shape=mxgraph.flowchart.annotation_2;align=left;labelPosition=right;pointerEvents=1;" parent="1" vertex="1">
          <mxGeometry x="550" y="935" width="50" height="100" as="geometry" />
        </mxCell>
        <mxCell id="aEE6XXP3drZddaAjEtbC-44" value="Fim" style="strokeWidth=2;html=1;shape=mxgraph.flowchart.start_1;whiteSpace=wrap;" parent="1" vertex="1">
          <mxGeometry x="395" y="1089" width="100" height="60" as="geometry" />
        </mxCell>
        <mxCell id="aEE6XXP3drZddaAjEtbC-46" value="Tratamento de Dados" style="rounded=1;whiteSpace=wrap;html=1;fillColor=#fff2cc;strokeColor=#d6b656;" parent="1" vertex="1">
          <mxGeometry x="540" y="90" width="130" height="30" as="geometry" />
        </mxCell>
        <mxCell id="aEE6XXP3drZddaAjEtbC-48" value="Machine Learning" style="rounded=1;whiteSpace=wrap;html=1;fillColor=#dae8fc;strokeColor=#6c8ebf;" parent="1" vertex="1">
          <mxGeometry x="540" y="130" width="130" height="30" as="geometry" />
        </mxCell>
        <mxCell id="_XOS3NaCuq_lXNP3MBwC-4" value="" style="edgeStyle=orthogonalEdgeStyle;rounded=0;orthogonalLoop=1;jettySize=auto;html=1;" edge="1" parent="1" source="_XOS3NaCuq_lXNP3MBwC-1" target="_XOS3NaCuq_lXNP3MBwC-3">
          <mxGeometry relative="1" as="geometry" />
        </mxCell>
        <mxCell id="_XOS3NaCuq_lXNP3MBwC-1" value="Detecção das colunas&amp;nbsp;&lt;div&gt;com dados outliers&lt;/div&gt;&lt;div&gt;utilizando a técnica Intervalo Quartil (IQR)&lt;/div&gt;" style="rounded=1;whiteSpace=wrap;html=1;absoluteArcSize=1;arcSize=14;strokeWidth=2;fillColor=#fff2cc;strokeColor=#d6b656;" vertex="1" parent="1">
          <mxGeometry x="190.5" y="380" width="149" height="130" as="geometry" />
        </mxCell>
        <mxCell id="_XOS3NaCuq_lXNP3MBwC-5" value="" style="edgeStyle=orthogonalEdgeStyle;rounded=0;orthogonalLoop=1;jettySize=auto;html=1;" edge="1" parent="1" source="_XOS3NaCuq_lXNP3MBwC-3" target="aEE6XXP3drZddaAjEtbC-19">
          <mxGeometry relative="1" as="geometry" />
        </mxCell>
        <mxCell id="_XOS3NaCuq_lXNP3MBwC-3" value="Eliminação dos outliers das coluns dectadas" style="rounded=1;whiteSpace=wrap;html=1;absoluteArcSize=1;arcSize=14;strokeWidth=2;fillColor=#fff2cc;strokeColor=#d6b656;" vertex="1" parent="1">
          <mxGeometry x="362.5" y="380" width="149" height="130" as="geometry" />
        </mxCell>
        <mxCell id="_XOS3NaCuq_lXNP3MBwC-6" value="Performance atual do modelo é de &lt;b&gt;&lt;font style=&quot;color: rgb(51, 51, 255);&quot;&gt;77,33%&lt;/font&gt;&lt;/b&gt;" style="text;html=1;align=center;verticalAlign=middle;whiteSpace=wrap;rounded=0;" vertex="1" parent="1">
          <mxGeometry x="315" y="100" width="90" height="60" as="geometry" />
        </mxCell>
      </root>
    </mxGraphModel>
  </diagram>
</mxfile>
